<svg id="Layer_1" data-name="Layer 1" xmlns="http://www.w3.org/2000/svg" viewBox="0 0 48 48"><defs><style>.cls-1,.cls-3{fill:none;}.cls-2{fill:#333;stroke:#e1e1e1;}.cls-2,.cls-3{stroke-miterlimit:10;}.cls-3{stroke:#787878;stroke-width:2px;}</style></defs><title>icon_setting</title><rect class="cls-1" width="48" height="48"/><rect class="cls-2" x="24.05" y="18.53" width="5" height="5"/><rect class="cls-2" x="6.55" y="18.53" width="5" height="5"/><rect class="cls-2" x="21.48" y="24.72" width="5" height="5" transform="translate(-12.22 24.93) rotate(-45)"/><rect class="cls-2" x="9.11" y="12.34" width="5" height="5" transform="translate(-7.1 12.56) rotate(-45)"/><rect class="cls-2" x="15.3" y="27.28" width="5" height="5"/><rect class="cls-2" x="15.3" y="9.78" width="5" height="5"/><rect class="cls-2" x="9.11" y="24.72" width="5" height="5" transform="translate(-15.85 16.18) rotate(-45)"/><rect class="cls-2" x="21.48" y="12.34" width="5" height="5" transform="translate(-3.47 21.31) rotate(-45)"/><rect class="cls-2" x="6.55" y="18.53" width="5" height="5"/><rect class="cls-2" x="24.05" y="18.53" width="5" height="5"/><rect class="cls-2" x="9.11" y="12.34" width="5" height="5" transform="translate(-7.1 12.56) rotate(-45)"/><rect class="cls-2" x="21.48" y="24.72" width="5" height="5" transform="translate(-12.22 24.93) rotate(-45)"/><rect class="cls-2" x="15.3" y="9.78" width="5" height="5"/><rect class="cls-2" x="15.3" y="27.28" width="5" height="5"/><circle class="cls-3" cx="17.8" cy="21.03" r="5.86"/><rect class="cls-2" x="36.35" y="27.91" width="3.75" height="3.75"/><rect class="cls-2" x="23.23" y="27.91" width="3.75" height="3.75"/><rect class="cls-2" x="34.43" y="32.55" width="3.75" height="3.75" transform="translate(-13.71 35.76) rotate(-45)"/><rect class="cls-2" x="25.15" y="23.27" width="3.75" height="3.75" transform="translate(-9.86 26.47) rotate(-45)"/><rect class="cls-2" x="29.79" y="34.47" width="3.75" height="3.75"/><rect class="cls-2" x="29.79" y="21.34" width="3.75" height="3.75"/><rect class="cls-2" x="25.15" y="32.55" width="3.75" height="3.75" transform="translate(-16.42 29.19) rotate(-45)"/><rect class="cls-2" x="34.43" y="23.27" width="3.75" height="3.75" transform="translate(-7.14 33.04) rotate(-45)"/><rect class="cls-2" x="23.23" y="27.91" width="3.75" height="3.75"/><rect class="cls-2" x="36.35" y="27.91" width="3.75" height="3.75"/><rect class="cls-2" x="25.15" y="23.27" width="3.75" height="3.75" transform="translate(-9.86 26.47) rotate(-45)"/><rect class="cls-2" x="34.43" y="32.55" width="3.75" height="3.75" transform="translate(-13.71 35.76) rotate(-45)"/><rect class="cls-2" x="29.79" y="21.34" width="3.75" height="3.75"/><rect class="cls-2" x="29.79" y="34.47" width="3.75" height="3.75"/><circle class="cls-3" cx="31.67" cy="29.78" r="4.4"/></svg>