<svg id="Layer_1" data-name="Layer 1" xmlns="http://www.w3.org/2000/svg" xmlns:xlink="http://www.w3.org/1999/xlink" viewBox="0 0 36 36"><defs><style>.cls-1{fill:none;}.cls-2{fill:#e1e1e1;}.cls-3{clip-path:url(#clip-path);}.cls-4{fill:#f5f5f5;}.cls-5{opacity:0.1;}.cls-6{fill:#f91d0a;}</style><clipPath id="clip-path"><path class="cls-1" d="M28,28.83a1.67,1.67,0,0,1-1.67,1.67H9.67A1.67,1.67,0,0,1,8,28.83V7.17A1.67,1.67,0,0,1,9.67,5.5H21.33a4.64,4.64,0,0,1,2.85,1.18l2.64,2.64A4.64,4.64,0,0,1,28,12.17Z"/></clipPath></defs><title>icon_pdf_enable</title><path class="cls-2" d="M28,28.5a2,2,0,0,1-2,2H10a2,2,0,0,1-2-2V7.5a2,2,0,0,1,2-2H21a5.56,5.56,0,0,1,3.41,1.41l2.17,2.17A5.56,5.56,0,0,1,28,12.5Z"/><g class="cls-3"><path class="cls-4" d="M27.42,9.92c.78.78.51,1.41-.59,1.41H24.17a2,2,0,0,1-2-2V6.67c0-1.1.64-1.36,1.41-.59Z"/></g><polygon class="cls-5" points="23.24 11.33 28 18.54 27.99 11.33 23.24 11.33"/><rect class="cls-1" x="0.05" width="36" height="36"/><path id="path4463" class="cls-6" d="M15.89,21c.37-.72.78-1.52,1.11-2.33h0l.13-.32a8.64,8.64,0,0,1-.46-3.83h0a.59.59,0,0,1,.6-.36h.2c.38,0,.56.48.58.66h0a3,3,0,0,1-.11.84h0a2.07,2.07,0,0,0-.13-.86h0c-.16-.34-.31-.55-.44-.58h0a.42.42,0,0,0-.16.32h0a4.6,4.6,0,0,0-.06.74h0a8.24,8.24,0,0,0,.34,2.14h0c0-.12.08-.24.11-.35h0l.34-1.32h0s-.07,1.53-.18,2h0l-.07.29h0a6.73,6.73,0,0,0,1.68,2.63h0a5.25,5.25,0,0,0,1,.67h0a13.24,13.24,0,0,1,2-.15h0a2.47,2.47,0,0,1,1.52.34h0a.58.58,0,0,1,.17.38h0a1.13,1.13,0,0,1,0,.22h0s0-.24-.59-.43h0a7,7,0,0,0-2.42,0h0a4.89,4.89,0,0,0,2.8.72h0a.8.8,0,0,0,.21-.2h0a2.14,2.14,0,0,1-.11.38h0a.6.6,0,0,1-.3.2h0a6.26,6.26,0,0,1-3.51-1h0a28.7,28.7,0,0,0-4.52,1.07h0c-1.31,2.3-2.3,3.36-3.1,3h0l-.3-.15a.34.34,0,0,1-.11-.37h0c.09-.46.67-1.15,1.82-1.84h0l.68-.37h0s-.41.4-.51.47h0a4.27,4.27,0,0,0-1.58,2.07h0v0c.78-.11,2-1.7,3.46-4.65m.48.24c-.25.47-.5.91-.73,1.32h0a19.26,19.26,0,0,1,3.9-1.1h0c-.17-.12-.34-.25-.5-.38h0a6.69,6.69,0,0,1-1.64-2.14h0a18.33,18.33,0,0,1-1,2.3"/></svg>