<svg id="Layer_1" data-name="Layer 1" xmlns="http://www.w3.org/2000/svg" xmlns:xlink="http://www.w3.org/1999/xlink" viewBox="0 0 36 36"><defs><style>.cls-1{fill:none;}.cls-2{fill:#e1e1e1;}.cls-3{clip-path:url(#clip-path);}.cls-4{fill:#f5f5f5;}.cls-5{opacity:0.1;}.cls-6{font-size:16.8px;font-family:GillSans-SemiBold, Gill Sans;font-weight:700;}.cls-6,.cls-7{fill:#787878;}</style><clipPath id="clip-path"><path class="cls-1" d="M28,29.08a1.67,1.67,0,0,1-1.67,1.67H9.62A1.67,1.67,0,0,1,8,29.08V7.42A1.67,1.67,0,0,1,9.62,5.75H21.29a4.64,4.64,0,0,1,2.85,1.18l2.64,2.64A4.64,4.64,0,0,1,28,12.42Z"/></clipPath></defs><title>icon_excel_disable</title><path class="cls-2" d="M28,28.75a2,2,0,0,1-2,2H10a2,2,0,0,1-2-2v-21a2,2,0,0,1,2-2H21a5.56,5.56,0,0,1,3.41,1.41l2.17,2.17A5.56,5.56,0,0,1,28,12.75Z"/><g class="cls-3"><path class="cls-4" d="M27.38,10.17c.78.78.51,1.41-.59,1.41H24.12a2,2,0,0,1-2-2V6.92c0-1.1.64-1.36,1.41-.59Z"/></g><polygon class="cls-5" points="23.2 11.58 27.96 18.79 27.94 11.58 23.2 11.58"/><rect class="cls-1" x="0.01" y="0.25" width="36" height="36"/><text class="cls-6" transform="translate(11.6 26.75)">X</text><rect class="cls-7" x="14.41" y="24.95" width="3.6" height="1.8"/></svg>