<svg id="Layer_1" data-name="Layer 1" xmlns="http://www.w3.org/2000/svg" xmlns:xlink="http://www.w3.org/1999/xlink" viewBox="0 0 36 36"><defs><style>.cls-1{fill:none;}.cls-2{fill:#e1e1e1;}.cls-3{clip-path:url(#clip-path);}.cls-4{fill:#f5f5f5;}.cls-5{opacity:0.1;}.cls-6{font-size:11px;fill:#ff7a0a;font-family:GillSans-SemiBold, Gill Sans;font-weight:700;}</style><clipPath id="clip-path"><path class="cls-1" d="M27.95,28.83a1.67,1.67,0,0,1-1.67,1.67H9.61a1.67,1.67,0,0,1-1.67-1.67V7.17A1.67,1.67,0,0,1,9.61,5.5H21.28a4.64,4.64,0,0,1,2.85,1.18l2.64,2.64a4.64,4.64,0,0,1,1.18,2.85Z"/></clipPath></defs><title>icon_csv_enable</title><path class="cls-2" d="M27.95,28.5a2,2,0,0,1-2,2h-16a2,2,0,0,1-2-2V7.5a2,2,0,0,1,2-2h11a5.56,5.56,0,0,1,3.41,1.41l2.17,2.17a5.56,5.56,0,0,1,1.41,3.41Z"/><g class="cls-3"><path class="cls-4" d="M27.36,9.92c.78.78.51,1.41-.59,1.41H24.11a2,2,0,0,1-2-2V6.67c0-1.1.64-1.36,1.41-.59Z"/></g><polygon class="cls-5" points="23.19 11.33 27.95 18.54 27.93 11.33 23.19 11.33"/><rect class="cls-1" width="36" height="36"/><text class="cls-6" transform="translate(10.62 23.5)">csv</text></svg>