<svg id="Layer_1" data-name="Layer 1" xmlns="http://www.w3.org/2000/svg" viewBox="0 0 235 48"><defs><style>.cls-1{fill:#fff;}.cls-2{fill:#744a1d;}.cls-3{fill:#d8dada;}.cls-4{fill:#053425;}.cls-5{fill:#349545;}</style></defs><title>logo_title_secondary</title><path class="cls-1" d="M27.13,26.32c-6,5.83-8.94,12.54-6.56,15a2.77,2.77,0,0,0,1.07.67H24.9c3.1-.73,7.14-3.15,10.87-6.77A29.93,29.93,0,0,0,42,26.9v-7c-2.63-1.94-9.12.8-14.87,6.38"/><path class="cls-2" d="M35.77,35.23C32,38.85,28,41.27,24.9,42H42V26.9a29.92,29.92,0,0,1-6.23,8.33"/><path class="cls-3" d="M38,24.13c-1.31-1.36-5.38.46-9.08,4a16.87,16.87,0,0,0-4.57,6.68,2.32,2.32,0,0,0,.25,2.27c1.31,1.36,5.38-.46,9.08-4a20.07,20.07,0,0,0,4-5.23c.82-1.66,1-3,.32-3.72"/><path class="cls-4" d="M29.53,6a17.85,17.85,0,0,0-.45,4.16l.1,0a16.44,16.44,0,0,0,5.59.13s-1.42,2.5-1.79,3.06A17.21,17.21,0,0,1,26.86,13a17.06,17.06,0,0,0,4.23,3.17l-2,2.68s-2.55-.59-5.41-4l0,0c-2.84-3.43-3.27-5.85-3.27-5.85,1.18-.64,3-1.54,3-1.54a23,23,0,0,0,2.48,4.4A17.53,17.53,0,0,1,26.57,6H6V18.66H6a18.1,18.1,0,0,0,2.67,6.27l2.76-2.3A14.16,14.16,0,0,1,8.8,16.38l2.82-2.09a19.36,19.36,0,0,0,3.68,7.44l0,0a16.16,16.16,0,0,0,7,4.66c-.77.78-2.53,2.39-2.53,2.39a12.29,12.29,0,0,1-6-3.42L11,27.68a15.66,15.66,0,0,0,6.07,3.45c-1.17,1-3,2.25-3,2.25A13.28,13.28,0,0,1,7,28.68l0,0c-.36-.43-.68-.85-1-1.27V42H21.64a2.76,2.76,0,0,1-1.07-.67c-2.39-2.46.55-9.18,6.56-15C32.88,20.74,39.37,18,42,19.94V6ZM24.7,24a12.72,12.72,0,0,1-6.6-4.52l0,0a15.35,15.35,0,0,1-3.59-7l2.91-1.77a17.88,17.88,0,0,0,3.46,6.5l0,0a14.39,14.39,0,0,0,6.05,4.31C26.42,22.05,24.7,24,24.7,24"/><path class="cls-5" d="M12.52,24,9.74,26.34l-1.07.89L7,28.65l0,0a13.28,13.28,0,0,0,7.14,4.7s1.8-1.28,3-2.25A15.66,15.66,0,0,1,11,27.68l2.76-2.29a12.29,12.29,0,0,0,6,3.42s1.76-1.61,2.53-2.39a16.16,16.16,0,0,1-7-4.66l0,0-.83.69Z"/><path class="cls-5" d="M20.88,17.14l0,0-2.78,2.31,0,0A12.72,12.72,0,0,0,24.7,24s1.72-1.91,2.23-2.52a14.39,14.39,0,0,1-6.05-4.31"/><path class="cls-5" d="M26.19,12.68,23.63,14.8l0,0c2.86,3.44,5.41,4,5.41,4l2-2.68A17.06,17.06,0,0,1,26.86,13a17.2,17.2,0,0,0,6.13.37c.36-.56,1.79-3.06,1.79-3.06a16.45,16.45,0,0,1-5.59-.13l-2.78,2.31Z"/><path class="cls-1" d="M8.67,27.24l1.07-.89L12.52,24l2-1.62.83-.69a19.36,19.36,0,0,1-3.68-7.44L8.8,16.38a14.16,14.16,0,0,0,2.65,6.25l-2.76,2.3A18.1,18.1,0,0,1,6,18.65H6v8.73c.29.41.61.84,1,1.27Z"/><path class="cls-1" d="M17.39,10.61l-2.91,1.77a15.35,15.35,0,0,0,3.59,7l2.78-2.31a17.88,17.88,0,0,1-3.46-6.5"/><path class="cls-1" d="M25.88,11.81a23,23,0,0,1-2.48-4.4s-1.86.9-3,1.54c0,0,.44,2.43,3.27,5.85l2.56-2.12.22-.18,2.78-2.31-.11,0A17.83,17.83,0,0,1,29.53,6h-3a17.53,17.53,0,0,0-.69,5.8"/><path class="cls-1" d="M60.05,14.28a3.36,3.36,0,0,1-1,2.48,3.71,3.71,0,0,1-2.75,1H54.14v4.26H51.93V10.75h4.38a3.71,3.71,0,0,1,2.75,1,3.37,3.37,0,0,1,1,2.48m-2.21,0a1.49,1.49,0,0,0-.45-1.13,1.64,1.64,0,0,0-1.19-.43H54.14v3.1h2.06a1.65,1.65,0,0,0,1.19-.42,1.46,1.46,0,0,0,.45-1.12"/><polygon class="cls-1" points="69.19 12.72 66.23 12.72 66.23 22.06 64.02 22.06 64.02 12.72 61.07 12.72 61.07 10.75 69.19 10.75 69.19 12.72"/><polygon class="cls-1" points="82.91 22.06 80.7 22.06 80.7 17.33 76.87 17.33 76.87 22.06 74.67 22.06 74.67 10.75 76.87 10.75 76.87 15.37 80.7 15.37 80.7 10.75 82.91 10.75 82.91 22.06"/><path class="cls-1" d="M93.7,18.18a3.72,3.72,0,0,1-1.19,2.87,4.55,4.55,0,0,1-5.94,0,3.73,3.73,0,0,1-1.19-2.87V10.75h2.21V18.1a2.13,2.13,0,0,0,.52,1.53,1.88,1.88,0,0,0,1.43.56A1.91,1.91,0,0,0,91,19.63a2.12,2.12,0,0,0,.53-1.53V10.75H93.7Z"/><polygon class="cls-1" points="106.41 22.06 104.2 22.06 104.2 15.47 102.04 19.76 100.55 19.76 98.37 15.47 98.37 22.06 96.16 22.06 96.16 10.75 98.33 10.75 101.27 16.87 104.2 10.75 106.41 10.75 106.41 22.06"/><path class="cls-1" d="M117.78,22.06h-2.3l-.67-2h-4l-.68,2h-2.3l4.11-11.31h1.73Zm-3.56-3.86-1.38-4.12-1.43,4.12Z"/><rect class="cls-1" x="122.87" y="10.75" width="2.21" height="11.31"/><polygon class="cls-1" points="136.37 22.06 134.4 22.06 129.92 15.12 129.92 22.06 127.71 22.06 127.71 10.75 129.68 10.75 134.16 17.68 134.16 10.75 136.37 10.75 136.37 22.06"/><path class="cls-1" d="M147.22,16.36a19.81,19.81,0,0,1-.09,2.48A3.77,3.77,0,0,1,146.08,21a4,4,0,0,1-3,1.08H139V10.75h4.08a4,4,0,0,1,3,1.08,3.74,3.74,0,0,1,1.05,2.1,19,19,0,0,1,.09,2.43m-2.21,0a15.34,15.34,0,0,0-.08-1.92,1.86,1.86,0,0,0-2-1.72h-1.67v7.37h1.67a2,2,0,0,0,1.65-.7,2.12,2.12,0,0,0,.39-1.07,16.38,16.38,0,0,0,.08-2"/><path class="cls-1" d="M157.45,16.41a15.07,15.07,0,0,1-.14,2.56,3.53,3.53,0,0,1-1,2,4.39,4.39,0,0,1-6.12,0,3.63,3.63,0,0,1-1-2,16.77,16.77,0,0,1-.13-2.56,16.77,16.77,0,0,1,.13-2.56,3.63,3.63,0,0,1,1-2,4.39,4.39,0,0,1,6.12,0,3.53,3.53,0,0,1,1,2,15.09,15.09,0,0,1,.14,2.56m-2.21,0q0-1.3,0-1.65a2.63,2.63,0,0,0-.52-1.53,2,2,0,0,0-2.85,0,2.69,2.69,0,0,0-.51,1.53c0,.19,0,.74,0,1.65s0,1.46,0,1.65a2.71,2.71,0,0,0,.51,1.53,2,2,0,0,0,3-.16,6.33,6.33,0,0,0,.43-3"/><polygon class="cls-1" points="172.54 22.06 169.97 22.06 167.06 16.91 165.6 18.66 165.6 22.06 163.4 22.06 163.4 10.75 165.6 10.75 165.6 15.68 169.59 10.75 172.27 10.75 168.53 15.24 172.54 22.06"/><polygon class="cls-1" points="181.41 22.06 173.96 22.06 173.96 10.75 181.41 10.75 181.41 12.72 176.17 12.72 176.17 15.37 180.63 15.37 180.63 17.34 176.17 17.34 176.17 20.09 181.41 20.09 181.41 22.06"/><polygon class="cls-1" points="190.91 22.06 183.57 22.06 183.57 10.75 185.78 10.75 185.78 20.09 190.91 20.09 190.91 22.06"/><path class="cls-1" d="M201.44,22.06h-2.31l-.67-2h-4l-.68,2h-2.31l4.12-11.31h1.73Zm-3.56-3.86-1.38-4.12-1.43,4.12Z"/><path class="cls-1" d="M211,14.28a3.36,3.36,0,0,1-1,2.48,3.71,3.71,0,0,1-2.75,1H205v4.26h-2.21V10.75h4.38a3.71,3.71,0,0,1,2.75,1,3.36,3.36,0,0,1,1,2.48m-2.21,0a1.49,1.49,0,0,0-.45-1.13,1.64,1.64,0,0,0-1.19-.43H205v3.1h2.07a1.65,1.65,0,0,0,1.19-.42,1.46,1.46,0,0,0,.45-1.12"/><path class="cls-1" d="M221.56,22.06h-2.3l-.67-2h-4l-.68,2h-2.3l4.12-11.31h1.73ZM218,18.2l-1.38-4.12-1.43,4.12Z"/><path class="cls-1" d="M57.79,31.25a14.8,14.8,0,0,1-.08,1.9,2.67,2.67,0,0,1-2.92,2.47H51.87V27.08h2.93a2.91,2.91,0,0,1,2.16.79,2.82,2.82,0,0,1,.75,1.58,13.2,13.2,0,0,1,.08,1.8m-.91,0a13,13,0,0,0-.06-1.54,2.08,2.08,0,0,0-.5-1.2,2.22,2.22,0,0,0-1.68-.62H52.78v6.91h1.86a2.23,2.23,0,0,0,1.68-.62,2.29,2.29,0,0,0,.5-1.29,15.08,15.08,0,0,0,.06-1.63"/><path class="cls-1" d="M64.3,32.9h-4a2.25,2.25,0,0,0,.45,1.5,1.59,1.59,0,0,0,1.29.53,2.14,2.14,0,0,0,1.55-.66l.59.52a3.31,3.31,0,0,1-.92.68,3.05,3.05,0,0,1-1.24.23A2.39,2.39,0,0,1,60.17,35a3.27,3.27,0,0,1-.71-2.29,3.43,3.43,0,0,1,.65-2.23,2.16,2.16,0,0,1,1.77-.8,2.19,2.19,0,0,1,1.78.77,3.15,3.15,0,0,1,.64,2.09Zm-.86-.65a3.27,3.27,0,0,0-.18-1,1.52,1.52,0,0,0-2.76,0,3.31,3.31,0,0,0-.18,1Z"/><path class="cls-1" d="M70.41,33.89a1.55,1.55,0,0,1-.65,1.32,2.89,2.89,0,0,1-1.74.48,3.36,3.36,0,0,1-2.42-.85l.57-.58a2.41,2.41,0,0,0,1.84.68q1.57,0,1.57-1,0-.78-1-.86l-1-.08q-1.76-.16-1.76-1.58a1.51,1.51,0,0,1,.61-1.26A2.49,2.49,0,0,1,68,29.65a3.27,3.27,0,0,1,2.12.64l-.56.56A2.51,2.51,0,0,0,68,30.38q-1.32,0-1.32,1c0,.51.34.8,1,.86l.95.08q1.74.16,1.74,1.59"/><path class="cls-1" d="M73,28H72v-1h1ZM73,35.62h-.86v-5.9H73Z"/><path class="cls-1" d="M79.36,34.82a2.82,2.82,0,0,1-.89.68,2.61,2.61,0,0,1-1.06.19,2.4,2.4,0,0,1-1.86-.76,3.18,3.18,0,0,1-.76-2.27,3.19,3.19,0,0,1,.76-2.27,2.41,2.41,0,0,1,1.86-.76,2.57,2.57,0,0,1,1.06.19,2.79,2.79,0,0,1,.89.68l-.59.55a1.8,1.8,0,0,0-1.35-.66,1.58,1.58,0,0,0-1.37.67,2.72,2.72,0,0,0-.38,1.58A2.72,2.72,0,0,0,76,34.25a1.58,1.58,0,0,0,1.37.67,1.81,1.81,0,0,0,1.35-.67Z"/><path class="cls-1" d="M85.24,34.82a2.83,2.83,0,0,1-.89.68,2.62,2.62,0,0,1-1.06.19,2.4,2.4,0,0,1-1.86-.76,3.18,3.18,0,0,1-.76-2.27,3.19,3.19,0,0,1,.76-2.27,2.41,2.41,0,0,1,1.86-.76,2.57,2.57,0,0,1,1.06.19,2.8,2.8,0,0,1,.89.68l-.59.55a1.8,1.8,0,0,0-1.36-.66,1.58,1.58,0,0,0-1.37.67,2.73,2.73,0,0,0-.38,1.58,2.73,2.73,0,0,0,.38,1.58,1.58,1.58,0,0,0,1.37.67,1.81,1.81,0,0,0,1.36-.67Z"/><path class="cls-1" d="M91.1,35.62h-.86v-.56a2.31,2.31,0,0,1-1.71.63,2.25,2.25,0,0,1-1.67-.54,1.65,1.65,0,0,1-.44-1.2A1.55,1.55,0,0,1,87,32.71a2.25,2.25,0,0,1,1.51-.46h1.77v-.56q0-1.29-1.51-1.3a1.71,1.71,0,0,0-1.49.67l-.59-.54a2.12,2.12,0,0,1,.89-.69,3.32,3.32,0,0,1,1.2-.18q2.36,0,2.36,2Zm-.86-2.09V32.9H88.58c-.88,0-1.32.35-1.32,1s.45,1,1.36,1a1.85,1.85,0,0,0,1.32-.4,1.39,1.39,0,0,0,.3-1"/><path class="cls-1" d="M95.47,35.62h-.61a1.4,1.4,0,0,1-1.13-.47A1.59,1.59,0,0,1,93.34,34V30.41H92.6v-.66h.75V27.91h.86v1.85h1.26v.66H94.21V34c0,.58.27.86.8.86h.45Z"/><path class="cls-1" d="M101.69,32.9h-4a2.24,2.24,0,0,0,.45,1.5,1.59,1.59,0,0,0,1.29.53,2.14,2.14,0,0,0,1.55-.66l.59.52a3.31,3.31,0,0,1-.92.68,3.06,3.06,0,0,1-1.24.23A2.38,2.38,0,0,1,97.55,35a3.27,3.27,0,0,1-.71-2.29,3.43,3.43,0,0,1,.65-2.23,2.16,2.16,0,0,1,1.77-.8,2.19,2.19,0,0,1,1.78.77,3.15,3.15,0,0,1,.64,2.09Zm-.86-.65a3.26,3.26,0,0,0-.18-1,1.52,1.52,0,0,0-2.76,0,3.27,3.27,0,0,0-.18,1Z"/><path class="cls-1" d="M107.92,35.62h-.86v-.71a2,2,0,0,1-1.68.78,1.93,1.93,0,0,1-1.43-.52,3.5,3.5,0,0,1-.72-2.51,3.49,3.49,0,0,1,.72-2.51,1.94,1.94,0,0,1,1.44-.52,2,2,0,0,1,1.67.76V27.08h.86Zm-.86-2.95a3.72,3.72,0,0,0-.25-1.56,1.43,1.43,0,0,0-2.45,0,3.55,3.55,0,0,0-.26,1.56,3.53,3.53,0,0,0,.26,1.56,1.42,1.42,0,0,0,2.45,0,3.7,3.7,0,0,0,.25-1.56"/><path class="cls-1" d="M118.83,33.15a3,3,0,0,1-1,1.87,2.93,2.93,0,0,1-2,.68,3,3,0,0,1-2.18-.89,2.56,2.56,0,0,1-.71-1.34,14.85,14.85,0,0,1-.1-2.11,14.83,14.83,0,0,1,.1-2.11,2.57,2.57,0,0,1,.71-1.34,3,3,0,0,1,2.18-.89,2.92,2.92,0,0,1,2,.67,3.08,3.08,0,0,1,1,1.87h-.94a2.22,2.22,0,0,0-.7-1.26,1.94,1.94,0,0,0-1.32-.47,2,2,0,0,0-1.47.6,1.93,1.93,0,0,0-.5,1,12.53,12.53,0,0,0-.1,1.93,12.54,12.54,0,0,0,.1,1.93,1.93,1.93,0,0,0,.5,1,2.13,2.13,0,0,0,2.81.13,2.21,2.21,0,0,0,.71-1.26Z"/><path class="cls-1" d="M125.2,32.67a3.27,3.27,0,0,1-.72,2.35,2.47,2.47,0,0,1-3.38,0,3.26,3.26,0,0,1-.72-2.35,3.26,3.26,0,0,1,.72-2.35,2.46,2.46,0,0,1,3.38,0,3.27,3.27,0,0,1,.72,2.35m-.86,0a2.61,2.61,0,0,0-.47-1.82,1.46,1.46,0,0,0-1.08-.43,1.45,1.45,0,0,0-1.07.43,2.58,2.58,0,0,0-.48,1.82,2.58,2.58,0,0,0,.48,1.82,1.45,1.45,0,0,0,1.07.43,1.49,1.49,0,0,0,1.1-.45,2.61,2.61,0,0,0,.45-1.8"/><path class="cls-1" d="M131.28,34.82a2.82,2.82,0,0,1-.89.68,2.61,2.61,0,0,1-1.06.19,2.41,2.41,0,0,1-1.86-.76,3.18,3.18,0,0,1-.76-2.27,3.19,3.19,0,0,1,.76-2.27,2.41,2.41,0,0,1,1.86-.76,2.57,2.57,0,0,1,1.06.19,2.79,2.79,0,0,1,.89.68l-.59.55a1.8,1.8,0,0,0-1.36-.66,1.57,1.57,0,0,0-1.37.67,2.71,2.71,0,0,0-.38,1.58,2.71,2.71,0,0,0,.38,1.58,1.57,1.57,0,0,0,1.37.67,1.81,1.81,0,0,0,1.36-.67Z"/><path class="cls-1" d="M137.43,32.67a3.26,3.26,0,0,1-.72,2.35,2.47,2.47,0,0,1-3.38,0,3.26,3.26,0,0,1-.72-2.35,3.27,3.27,0,0,1,.72-2.35,2.47,2.47,0,0,1,3.38,0,3.26,3.26,0,0,1,.72,2.35m-.86,0a2.61,2.61,0,0,0-.47-1.82,1.55,1.55,0,0,0-2.15,0,2.6,2.6,0,0,0-.48,1.82,2.6,2.6,0,0,0,.48,1.82,1.46,1.46,0,0,0,1.07.43,1.49,1.49,0,0,0,1.1-.45,2.61,2.61,0,0,0,.45-1.8"/><path class="cls-1" d="M143.93,35.62h-.86V32q0-1.57-1.45-1.57a1.41,1.41,0,0,0-1.07.41,1.62,1.62,0,0,0-.39,1.16v3.63h-.86v-5.9h.86v.65a2.11,2.11,0,0,1,1.66-.72,2.06,2.06,0,0,1,1.51.55,2.19,2.19,0,0,1,.61,1.64Z"/><path class="cls-1" d="M150.62,35.62h-.86V35a2.09,2.09,0,0,1-1.66.73,2.07,2.07,0,0,1-1.52-.55,2.22,2.22,0,0,1-.6-1.66V29.72h.86v3.63q0,1.57,1.44,1.57a1.44,1.44,0,0,0,1.08-.41,1.61,1.61,0,0,0,.4-1.17V29.72h.86Z"/><path class="cls-1" d="M155,35.62h-.61a1.4,1.4,0,0,1-1.13-.47,1.59,1.59,0,0,1-.38-1.12V30.41h-.74v-.66h.74V27.91h.86v1.85H155v.66h-1.26V34c0,.58.27.86.8.86H155Z"/><polygon class="cls-1" points="157.78 36.4 156.72 37.35 156.72 34.56 157.78 34.56 157.78 36.4"/><path class="cls-1" d="M168.68,33.15a3,3,0,0,1-1,1.87,2.94,2.94,0,0,1-2,.68,3,3,0,0,1-2.18-.89,2.55,2.55,0,0,1-.71-1.34,14.94,14.94,0,0,1-.1-2.11,14.93,14.93,0,0,1,.1-2.11,2.55,2.55,0,0,1,.71-1.34,3,3,0,0,1,2.18-.89,2.92,2.92,0,0,1,2,.67,3.07,3.07,0,0,1,1,1.87h-.94a2.22,2.22,0,0,0-.7-1.26,1.94,1.94,0,0,0-1.33-.47,2,2,0,0,0-1.47.6,1.92,1.92,0,0,0-.5,1,12.59,12.59,0,0,0-.1,1.93,12.6,12.6,0,0,0,.1,1.93,1.92,1.92,0,0,0,.5,1,2.13,2.13,0,0,0,2.81.13,2.23,2.23,0,0,0,.71-1.26Z"/><polygon class="cls-1" points="177 35.62 176.14 35.62 171.61 28.77 171.61 35.62 170.69 35.62 170.69 27.08 171.56 27.08 176.09 33.9 176.09 27.08 177 27.08 177 35.62"/><path class="cls-1" d="M185.12,31.35a14.81,14.81,0,0,1-.09,2.11,2.56,2.56,0,0,1-.71,1.34,3.13,3.13,0,0,1-4.37,0,2.57,2.57,0,0,1-.7-1.34,14.61,14.61,0,0,1-.1-2.11,14.59,14.59,0,0,1,.1-2.11,2.55,2.55,0,0,1,.7-1.35,3.13,3.13,0,0,1,4.37,0,2.55,2.55,0,0,1,.71,1.35,14.79,14.79,0,0,1,.09,2.11m-.91,0a12.51,12.51,0,0,0-.09-1.92,2,2,0,0,0-.5-1,2.09,2.09,0,0,0-3,0,1.94,1.94,0,0,0-.5,1,12.49,12.49,0,0,0-.1,1.92,12.53,12.53,0,0,0,.1,1.92,1.93,1.93,0,0,0,.5,1,2.09,2.09,0,0,0,3,0,2,2,0,0,0,.5-1,12.56,12.56,0,0,0,.09-1.92"/><path class="cls-1" d="M197.07,35.62h-1.14l-.77-.94a3.58,3.58,0,0,1-2.52,1,2.77,2.77,0,0,1-2-.68,2.33,2.33,0,0,1-.73-1.8,2.25,2.25,0,0,1,.58-1.52,6.6,6.6,0,0,1,1.27-1,9.09,9.09,0,0,1-.62-.83,2.09,2.09,0,0,1-.3-1,1.7,1.7,0,0,1,.53-1.28,1.88,1.88,0,0,1,1.35-.51,1.83,1.83,0,0,1,1.33.51,1.72,1.72,0,0,1,.53,1.28,1.84,1.84,0,0,1-.95,1.52l-.64.43,2.18,2.63a3.58,3.58,0,0,0,.48-2h.86a4.08,4.08,0,0,1-.79,2.61Zm-2.42-1.56-2.35-2.83a6.42,6.42,0,0,0-1,.81,1.66,1.66,0,0,0-.46,1.15,1.61,1.61,0,0,0,.51,1.23,1.81,1.81,0,0,0,1.29.47,3,3,0,0,0,2-.83m-.9-5.26a1,1,0,0,0-.29-.73,1,1,0,0,0-.72-.29.94.94,0,0,0-.7.28,1,1,0,0,0-.27.72,2.78,2.78,0,0,0,.77,1.41l.45-.31q.76-.53.76-1.07"/><polygon class="cls-1" points="207.33 27.08 204.52 35.62 203.78 35.62 200.97 27.08 201.93 27.08 204.15 33.99 206.37 27.08 207.33 27.08"/><path class="cls-1" d="M214.29,33.15a3,3,0,0,1-1,1.87,2.94,2.94,0,0,1-2,.68,3,3,0,0,1-2.18-.89,2.56,2.56,0,0,1-.71-1.34,15,15,0,0,1-.09-2.11,15,15,0,0,1,.09-2.11,2.57,2.57,0,0,1,.71-1.34,3,3,0,0,1,2.18-.89,2.92,2.92,0,0,1,2,.67,3.07,3.07,0,0,1,1,1.87h-.94a2.23,2.23,0,0,0-.7-1.26,1.94,1.94,0,0,0-1.33-.47,2,2,0,0,0-1.48.6,1.93,1.93,0,0,0-.5,1,12.8,12.8,0,0,0-.1,1.93,12.81,12.81,0,0,0,.1,1.93,1.93,1.93,0,0,0,.5,1,2.13,2.13,0,0,0,2.81.13,2.22,2.22,0,0,0,.71-1.26Z"/><path class="cls-1" d="M221.95,31.35a14.56,14.56,0,0,1-.1,2.11,2.56,2.56,0,0,1-.71,1.34,3.13,3.13,0,0,1-4.37,0,2.58,2.58,0,0,1-.71-1.34,14.81,14.81,0,0,1-.1-2.11,14.79,14.79,0,0,1,.1-2.11,2.57,2.57,0,0,1,.71-1.35,3.14,3.14,0,0,1,4.37,0,2.54,2.54,0,0,1,.71,1.35,14.55,14.55,0,0,1,.1,2.11m-.91,0a12.59,12.59,0,0,0-.09-1.92,2,2,0,0,0-.5-1,2.09,2.09,0,0,0-3,0,1.93,1.93,0,0,0-.5,1,12.41,12.41,0,0,0-.1,1.92,12.45,12.45,0,0,0,.1,1.92,1.93,1.93,0,0,0,.5,1,2.09,2.09,0,0,0,3,0,2,2,0,0,0,.5-1,12.64,12.64,0,0,0,.09-1.92"/></svg>