<svg id="Layer_1" data-name="Layer 1" xmlns="http://www.w3.org/2000/svg" viewBox="0 0 48 48"><defs><style>.cls-1{fill:#fff;}.cls-2{fill:#744a1d;}.cls-3{fill:#d8dada;}.cls-4{fill:#053425;}.cls-5{fill:#349545;}</style></defs><title>logo_main</title><path class="cls-1" d="M27.13,26.32c-6,5.83-8.94,12.54-6.56,15a2.77,2.77,0,0,0,1.07.67H24.9c3.1-.73,7.14-3.15,10.87-6.77A29.93,29.93,0,0,0,42,26.9v-7c-2.63-1.94-9.12.8-14.87,6.38"/><path class="cls-2" d="M35.77,35.23C32,38.85,28,41.27,24.9,42H42V26.9a29.92,29.92,0,0,1-6.23,8.33"/><path class="cls-3" d="M38,24.13c-1.31-1.36-5.38.46-9.08,4a16.87,16.87,0,0,0-4.57,6.68,2.32,2.32,0,0,0,.25,2.27c1.31,1.36,5.38-.46,9.08-4a20.07,20.07,0,0,0,4-5.23c.82-1.66,1-3,.32-3.72"/><path class="cls-4" d="M29.53,6a17.85,17.85,0,0,0-.45,4.16l.1,0a16.44,16.44,0,0,0,5.59.13s-1.42,2.5-1.79,3.06A17.21,17.21,0,0,1,26.86,13a17.06,17.06,0,0,0,4.23,3.17l-2,2.68s-2.55-.59-5.41-4l0,0c-2.84-3.43-3.27-5.85-3.27-5.85,1.18-.64,3-1.54,3-1.54a23,23,0,0,0,2.48,4.4A17.53,17.53,0,0,1,26.57,6H6V18.66H6a18.1,18.1,0,0,0,2.67,6.27l2.76-2.3A14.16,14.16,0,0,1,8.8,16.38l2.82-2.09a19.36,19.36,0,0,0,3.68,7.44l0,0a16.16,16.16,0,0,0,7,4.66c-.77.78-2.53,2.39-2.53,2.39a12.29,12.29,0,0,1-6-3.42L11,27.68a15.66,15.66,0,0,0,6.07,3.45c-1.17,1-3,2.25-3,2.25A13.28,13.28,0,0,1,7,28.68l0,0c-.36-.43-.68-.85-1-1.27V42H21.64a2.76,2.76,0,0,1-1.07-.67c-2.39-2.46.55-9.18,6.56-15C32.88,20.74,39.37,18,42,19.94V6ZM24.7,24a12.72,12.72,0,0,1-6.6-4.52l0,0a15.35,15.35,0,0,1-3.59-7l2.91-1.77a17.88,17.88,0,0,0,3.46,6.5l0,0a14.39,14.39,0,0,0,6.05,4.31C26.42,22.05,24.7,24,24.7,24"/><path class="cls-5" d="M12.52,24,9.74,26.34l-1.07.89L7,28.65l0,0a13.28,13.28,0,0,0,7.14,4.7s1.8-1.28,3-2.25A15.66,15.66,0,0,1,11,27.68l2.76-2.29a12.29,12.29,0,0,0,6,3.42s1.76-1.61,2.53-2.39a16.16,16.16,0,0,1-7-4.66l0,0-.83.69Z"/><path class="cls-5" d="M20.88,17.14l0,0-2.78,2.31,0,0A12.72,12.72,0,0,0,24.7,24s1.72-1.91,2.23-2.52a14.39,14.39,0,0,1-6.05-4.31"/><path class="cls-5" d="M26.19,12.68,23.63,14.8l0,0c2.86,3.44,5.41,4,5.41,4l2-2.68A17.06,17.06,0,0,1,26.86,13a17.2,17.2,0,0,0,6.13.37c.36-.56,1.79-3.06,1.79-3.06a16.45,16.45,0,0,1-5.59-.13l-2.78,2.31Z"/><path class="cls-1" d="M8.67,27.24l1.07-.89L12.52,24l2-1.62.83-.69a19.36,19.36,0,0,1-3.68-7.44L8.8,16.38a14.16,14.16,0,0,0,2.65,6.25l-2.76,2.3A18.1,18.1,0,0,1,6,18.65H6v8.73c.29.41.61.84,1,1.27Z"/><path class="cls-1" d="M17.39,10.61l-2.91,1.77a15.35,15.35,0,0,0,3.59,7l2.78-2.31a17.88,17.88,0,0,1-3.46-6.5"/><path class="cls-1" d="M25.88,11.81a23,23,0,0,1-2.48-4.4s-1.86.9-3,1.54c0,0,.44,2.43,3.27,5.85l2.56-2.12.22-.18,2.78-2.31-.11,0A17.83,17.83,0,0,1,29.53,6h-3a17.53,17.53,0,0,0-.69,5.8"/></svg>